<svg xmlns="http://www.w3.org/2000/svg" viewBox="0 0 100 100" aria-labelledby="baseball-seams-title">
  <title id="baseball-seams-title">Baseball Seam Pattern</title>
  
  <!-- Baseball background -->
  <circle cx="50" cy="50" r="48" fill="#f6f6ef" stroke="#e0e0e0" stroke-width="2"/>
  
  <!-- Left seam curve -->
  <path d="M 35 20 Q 20 35, 20 50 Q 20 65, 35 80" 
        fill="none" stroke="#cc3333" stroke-width="2.5" stroke-linecap="round"/>
  
  <!-- Right seam curve -->
  <path d="M 65 20 Q 80 35, 80 50 Q 80 65, 65 80" 
        fill="none" stroke="#cc3333" stroke-width="2.5" stroke-linecap="round"/>
  
  <!-- Seam stitches - left -->
  <line x1="32" y1="25" x2="28" y2="25" stroke="#cc3333" stroke-width="1.5"/>
  <line x1="28" y1="32" x2="24" y2="32" stroke="#cc3333" stroke-width="1.5"/>
  <line x1="24" y1="40" x2="20" y2="40" stroke="#cc3333" stroke-width="1.5"/>
  <line x1="22" y1="48" x2="18" y2="48" stroke="#cc3333" stroke-width="1.5"/>
  <line x1="22" y1="56" x2="18" y2="56" stroke="#cc3333" stroke-width="1.5"/>
  <line x1="24" y1="64" x2="20" y2="64" stroke="#cc3333" stroke-width="1.5"/>
  <line x1="28" y1="72" x2="24" y2="72" stroke="#cc3333" stroke-width="1.5"/>
  <line x1="32" y1="78" x2="28" y2="78" stroke="#cc3333" stroke-width="1.5"/>
  
  <!-- Seam stitches - right -->
  <line x1="68" y1="25" x2="72" y2="25" stroke="#cc3333" stroke-width="1.5"/>
  <line x1="72" y1="32" x2="76" y2="32" stroke="#cc3333" stroke-width="1.5"/>
  <line x1="76" y1="40" x2="80" y2="40" stroke="#cc3333" stroke-width="1.5"/>
  <line x1="78" y1="48" x2="82" y2="48" stroke="#cc3333" stroke-width="1.5"/>
  <line x1="78" y1="56" x2="82" y2="56" stroke="#cc3333" stroke-width="1.5"/>
  <line x1="76" y1="64" x2="80" y2="64" stroke="#cc3333" stroke-width="1.5"/>
  <line x1="72" y1="72" x2="76" y2="72" stroke="#cc3333" stroke-width="1.5"/>
  <line x1="68" y1="78" x2="72" y2="78" stroke="#cc3333" stroke-width="1.5"/>
</svg>
